<svg xmlns="http://www.w3.org/2000/svg" xmlns:xlink="http://www.w3.org/1999/xlink" viewBox="0 0 344.71 74.24"><defs><style>.cls-1{fill:none;}.cls-2{fill:#464655;}.cls-3{fill:#ec6d5f;}.cls-4{clip-path:url(#clip-path);}.cls-5{fill:#f4b4cc;}</style><clipPath id="clip-path"><rect class="cls-1" x="0.06" y="0.27" width="346.12" height="52.85"/></clipPath></defs><title>アセット 1</title><g id="レイヤー_2" data-name="レイヤー 2"><g id="レイヤー_1-2" data-name="レイヤー 1"><path class="cls-2" d="M137.45,72.15l2.81-2.69a24.34,24.34,0,0,0,1.86-1.88,2,2,0,0,0,.31-.67,4.85,4.85,0,0,0,.07-1,1.51,1.51,0,0,0-.45-1.27,2.06,2.06,0,0,0-1.25-.33,4.79,4.79,0,0,0-1.7.33V65c0,.83-.26,1.24-.77,1.24a.93.93,0,0,1-.71-.29,1.11,1.11,0,0,1-.27-.77,1.53,1.53,0,0,1,1.05-1.35,5.16,5.16,0,0,1,2.27-.5,3.84,3.84,0,0,1,2.4.76,2.39,2.39,0,0,1,1,2,3,3,0,0,1-.52,1.7,13.47,13.47,0,0,1-2.42,2.35l-2.56,2.17h4.18A21.58,21.58,0,0,0,144,70.13l.64.18-.83,3h-6.34Z"/><path class="cls-2" d="M155.84,73.28a3.75,3.75,0,0,1-3-1.33,5.29,5.29,0,0,1-1.13-3.54,5.94,5.94,0,0,1,1.15-3.93,3.91,3.91,0,0,1,5.93,0,6,6,0,0,1,1.15,3.9,5.3,5.3,0,0,1-1.14,3.56A3.69,3.69,0,0,1,155.84,73.28Zm2.55-4.36a9.11,9.11,0,0,0-.52-3.73,2.13,2.13,0,0,0-2.11-1,2.2,2.2,0,0,0-1.91.78,5.63,5.63,0,0,0-.57,3.07,8.06,8.06,0,0,0,.59,3.43,2,2,0,0,0,1.91,1,2.28,2.28,0,0,0,2.08-.83A5.14,5.14,0,0,0,158.39,68.92Z"/><path class="cls-2" d="M167,72.69a10.85,10.85,0,0,0,1.86-.36V64.54h-1.73l-.07-.91,3.27-.28v9a6.8,6.8,0,0,0,1.65.33v.62h-5Z"/><path class="cls-2" d="M182.24,73.28a4.65,4.65,0,0,1-2-.41,1.35,1.35,0,0,1-.84-1.27.83.83,0,0,1,.26-.61.88.88,0,0,1,.67-.26q.72,0,.72,1.11v.31a5.51,5.51,0,0,0,1.76.23,1.79,1.79,0,0,0,1.71-1,7.22,7.22,0,0,0,.51-3,4.34,4.34,0,0,1-2.61.93,3.49,3.49,0,0,1-2.38-.79,2.66,2.66,0,0,1-.92-2.13,3.13,3.13,0,0,1,1-2.37,3.62,3.62,0,0,1,2.59-.95,3.44,3.44,0,0,1,2.83,1.34A5.55,5.55,0,0,1,186.6,68a5.74,5.74,0,0,1-1.22,3.8A3.85,3.85,0,0,1,182.24,73.28Zm.44-9.16a2.15,2.15,0,0,0-1.64.49,2.49,2.49,0,0,0-.43,1.65A2.64,2.64,0,0,0,181,68a2,2,0,0,0,1.53.48,5.49,5.49,0,0,0,2.45-.62,6.25,6.25,0,0,0-.56-2.84A1.88,1.88,0,0,0,182.68,64.12Z"/><path class="cls-2" d="M69.29,70.39c.3-.49.72-1,1-1s1.32.91,1.32,1.26-.24.33-.78.33H65.72c0,1.43,0,2.4,0,2.78s-.21.5-.67.5c-.27,0-.38-.15-.38-.41,0-.45,0-1.4,0-2.87H59.28c-.18,0-.31,0-.31-.28s.13-.27.31-.27h5.47V68.23H62.1v.59c0,.31-.2.46-.63.46a.36.36,0,0,1-.41-.39c0-1.15.11-5.07,0-6.55a.18.18,0,0,1,.2-.18,3.39,3.39,0,0,1,1.34.6h5.7c.2-.28.48-.6.64-.6s1.1.61,1.1.92-.24.3-.49.41c0,1.23,0,4.42,0,5,0,.43-.24.54-.61.54a.42.42,0,0,1-.43-.47v-.37H66.17s0,0,0,0-.15.28-.47.33v1.78Zm-7.16-7.08c0,.39,0,1.27,0,1.88h6.44c0-.76,0-1.46,0-1.88Zm0,4.36h6.41l0-1.92H62.09v1.92Z"/><path class="cls-2" d="M82.16,68.35c0,3.1.06,4.83.06,5.39,0,.29-.21.5-.63.5-.26,0-.36-.17-.36-.43,0-.57.06-2.16.06-5.09a10.12,10.12,0,0,1-2.13,2.58c-.36.26-.68,0-.38-.36a12.38,12.38,0,0,0,2.39-4.43H79.25c-.18,0-.3-.06-.3-.28s.12-.27.3-.27h2V63.48a16.76,16.76,0,0,1-1.91.31c-.39,0-.5-.37-.06-.47A12.38,12.38,0,0,0,82.74,62c.32-.19.41-.2.67,0a3,3,0,0,1,.61.63c.18.29-.11.45-.62.23l-1,.3a.16.16,0,0,1,.09.14c0,.14-.13.22-.38.26V66h.38c.26-.39.58-.81.76-.81s1.08.78,1.08,1.07-.25.29-.62.29h-1.6Zm1.69.85a.49.49,0,0,1-.57.48c-.29,0-.38-.33-.54-.75s-.25-.55-.38-.83,0-.44.32-.3C83.31,68.1,83.91,68.64,83.85,69.2Zm.56-6A20,20,0,0,0,90,61.83c.32-.15.37-.17.66.05a3.33,3.33,0,0,1,.67.77c.15.29-.11.48-.61.22a29,29,0,0,1-6.23.86C84.05,63.73,84,63.28,84.41,63.21Zm.8,10.46c0,.3-.21.41-.58.41a.33.33,0,0,1-.36-.37c0-.32,0-2.94,0-3.38A33.09,33.09,0,0,0,84.23,67c0-.13,0-.2.18-.2.36,0,1.38.06,1.38.35s-.19.29-.57.35c0,.52,0,2.53,0,2.95Zm1.12-7.85a.56.56,0,0,1-.68.5c-.33-.06-.37-.43-.48-.82s-.21-.54-.32-.81.07-.58.43-.37C85.92,64.76,86.43,65.28,86.33,65.82Zm3.42,1.49c.2-.27.46-.58.61-.58s1.07.6,1.07.9-.22.31-.46.4c-.06,1.26,0,4.71,0,5.36,0,.43-.22.53-.59.53a.42.42,0,0,1-.42-.47v-.57H87.33v.69c0,.31-.21.45-.6.45s-.37-.14-.37-.39c0-1.17.11-5.13,0-6.62a.15.15,0,0,1,.19-.17,3.24,3.24,0,0,1,1.14.47ZM87.65,64c.59.49,1.06,1.06.91,1.58a.59.59,0,0,1-.75.45c-.32-.1-.33-.47-.4-.88,0-.24-.15-.55-.23-.83S87.31,63.78,87.65,64ZM90,69.67c0-.74,0-1.42,0-1.8H87.34c0,.33,0,1.15,0,1.79Zm0,2.66V70.22H87.31v.25l0,1.86Zm1.64-7.65q0,.3-.63.21a10.09,10.09,0,0,1-1.65,2c-.32.25-.6,0-.4-.31A9.26,9.26,0,0,0,90.21,64c0-.12.12-.22.26-.18C90.94,64,91.65,64.42,91.63,64.68Z"/><path class="cls-2" d="M108.15,63.12c.21-.28.47-.57.63-.57.32,0,1.2.66,1.2,1s-.29.36-.59.49c-.1,2,0,8.44,0,9.48,0,.43-.26.54-.65.54a.43.43,0,0,1-.44-.47v-.63H99.84v.73c0,.3-.2.48-.66.48a.36.36,0,0,1-.4-.41c0-1.66.16-9-.06-11a.19.19,0,0,1,.2-.19,3.58,3.58,0,0,1,1.44.61Zm-8.26.56c0,.75-.06,2.94-.06,4h3.75v-4H99.89Zm0,8.7h3.73V68.21H99.83Zm4.73-4.72h3.82c0-1.76,0-3.38,0-4h-3.48a0,0,0,0,1,0,0c0,.15-.13.25-.36.33Zm3.79,4.72c0-1,0-2.63,0-4.17h-3.82v4.17Z"/><path class="cls-2" d="M195.5,67.58c.19-.27.44-.57.59-.57s1.08.62,1.08.93-.25.36-.51.45c0,.74,0,2.44,0,3.24a3.67,3.67,0,0,0,2.94,1.29,44.1,44.1,0,0,0,6.84-.11c.4,0,.4.37.05.46s-.3.18-.4.37-.18.28-.48.31a35.5,35.5,0,0,1-6.58-.2,3.5,3.5,0,0,1-2.81-1.87c-.49.65-1,1.26-1.47,1.86-.15.47-.36.48-.55.25a3.53,3.53,0,0,1-.49-.9c-.05-.18,0-.25.17-.36a11.47,11.47,0,0,0,1.83-1.19c0-.78,0-2.65,0-3.41H194c-.18,0-.3-.06-.3-.28s.12-.27.3-.27Zm-.85-4.7c-.2-.29,0-.59.36-.47.86.28,1.71.84,1.72,1.59a.64.64,0,0,1-.65.72c-.4,0-.55-.38-.8-.87A9.58,9.58,0,0,0,194.65,62.88Zm4.12,0a4.77,4.77,0,0,1,0,.54,1.15,1.15,0,0,1-1.09,1.21.49.49,0,0,1-.52-.5c0-.44.45-.53.74-1a2.39,2.39,0,0,0,.16-1,.28.28,0,0,1,.54-.05,2.33,2.33,0,0,1,.07.25h6c.22-.25.5-.51.64-.51A1.9,1.9,0,0,1,206.42,63c0,.3-.43.24-.73.24a9.37,9.37,0,0,0-.87.64c.25,0,1.08.71,1.09,1s-.19.26-.66.26h-3.06v.93h1.58c.19-.25.41-.51.55-.51s1,.55,1,.84-.18.27-.39.35c0,.73,0,2.33,0,2.73s-.21.52-.58.52a.42.42,0,0,1-.42-.47H202.2v1h2.29c.26-.37.59-.8.77-.8s1.18.76,1.18,1.06-.21.29-.71.29h-3.51v1.11c0,.32-.21.46-.63.46a.35.35,0,0,1-.39-.39c0-.14,0-.61,0-1.18h-3.64c-.18,0-.3,0-.3-.27s.12-.28.3-.28h3.64l0-1h-1.72v.29c0,.29-.21.41-.59.41a.32.32,0,0,1-.36-.37c0-.86.07-2.91-.06-4.08a.17.17,0,0,1,.21-.18,3.59,3.59,0,0,1,1.12.48h1.43c0-.3,0-.62,0-.93h-2.81c-.18,0-.3-.05-.3-.27s.12-.28.3-.28h2.79c0-.45-.06-.83-.1-1.11,0-.12,0-.19.18-.19.48,0,1.44.05,1.44.36s-.2.3-.57.37v.57h1.91a5.65,5.65,0,0,1,.5-.6c-.19,0-.3-.12-.15-.38s.18-.42.3-.7Zm2.52,3.71h-1.73c0,.18,0,.54,0,.88h1.75Zm0,2.34,0-.91h-1.75V69Zm.92-2.34v.88H204v-.88ZM204,69v-.91h-1.78V69Z"/><path class="cls-2" d="M224.55,64.36c.23-.26.52-.52.67-.52s1.16.84,1.16,1.23-.37.3-.75.37c-.37.36-.76.75-1,1s-.57,0-.41-.28.31-.8.44-1.23h-8.86c0,.14,0,.26,0,.38A1.62,1.62,0,0,1,214.43,67a.52.52,0,0,1-.59-.49c-.05-.55.69-.75,1-1.41a2.27,2.27,0,0,0,.12-1.25c0-.32.36-.39.5-.1s.12.38.18.57h6.16c-.11,0-.16-.19-.07-.38a8.58,8.58,0,0,0,1-2.07.2.2,0,0,1,.26-.18c.46.14,1.22.58,1.19.83s-.22.28-.64.22a7.61,7.61,0,0,1-1.38,1.49.5.5,0,0,1-.18.09Zm-1.49,5.92c.19-.27.44-.53.58-.53s1.11.61,1.11.91-.22.31-.47.41c0,.8,0,2.16,0,2.57s-.23.53-.61.53a.42.42,0,0,1-.43-.47v-.31H217v.4c0,.29-.22.42-.64.42a.33.33,0,0,1-.37-.37c0-.84.07-2.75-.05-3.9a.16.16,0,0,1,.19-.18,3.51,3.51,0,0,1,1.22.52h1.42c.18-.49.36-1,.47-1.46H218V69c0,.29-.21.41-.61.41a.32.32,0,0,1-.36-.37c0-.76.05-2.22-.06-3.3a.18.18,0,0,1,.21-.18,3.24,3.24,0,0,1,1.09.47H222c.18-.23.39-.44.51-.44.28,0,1.1.59,1.1.9s-.24.29-.47.39c0,.65,0,1.62,0,2s-.21.53-.6.53a.42.42,0,0,1-.42-.47v-.1h-1.42a.14.14,0,0,1,0,.1c0,.19-.17.25-.53.28-.18.34-.4.73-.61,1.08Zm-6.5-8c-.13-.28,0-.52.36-.36.72.39,1.36,1,1.29,1.63a.56.56,0,0,1-.65.53c-.33,0-.41-.4-.58-.86A8.92,8.92,0,0,0,216.56,62.33Zm6.69,10.51c0-.67,0-1.54,0-2H217c0,.29,0,1.11,0,1.34v.67ZM218,68.27h4.13c0-.54,0-1.26,0-1.66H218c0,.23,0,.87,0,1.12Zm1.12-6.19c-.11-.29.09-.51.41-.32.65.4,1.23,1,1.1,1.63a.55.55,0,0,1-.69.47c-.33-.07-.36-.42-.48-.87A9.61,9.61,0,0,0,219.08,62.08Z"/><path class="cls-2" d="M236.09,65.54a15.21,15.21,0,0,0,3.12-.64c.38-.12.49-.26.79-.26.49,0,1.38.61,1.38,1.11,0,.33-.43.44-.71.87A13.68,13.68,0,0,1,234,72.16a.34.34,0,1,1-.25-.62,13.64,13.64,0,0,0,6-5.46c.3-.58.17-.58-.24-.48A29.58,29.58,0,0,1,236,66.66a1.64,1.64,0,0,1-1.29-1.27c-.06-.36.16-.47.42-.31C235.54,65.37,235.76,65.54,236.09,65.54Zm6.79,5.86a.55.55,0,0,1-.58.55c-.48,0-.64-.5-1-1a9,9,0,0,0-1.32-1.29c-.3-.25-.07-.55.29-.48C241.57,69.46,242.92,70.29,242.88,71.4Z"/><path class="cls-2" d="M257.31,66.25a16.53,16.53,0,0,1-1.17,2.66c.57.35,1,.76,1,1.2,0,.26-.14.53-.43.53s-.58-.34-1.15-.79a9.62,9.62,0,0,1-4.26,3.36c-.5.21-.74-.26-.24-.55a10.39,10.39,0,0,0,3.74-3.35c-.54-.32-1.26-.68-2-1-.39-.18-.25-.61.24-.51a13.77,13.77,0,0,1,2.27.69,9.72,9.72,0,0,0,1-2.81c0-.22,0-.25-.22-.22-.93.14-1.76.44-2.19.44a1.05,1.05,0,0,1-.63-.32,11.49,11.49,0,0,1-2.71,5.11c-.34.34-.73,0-.49-.33a12.45,12.45,0,0,0,2.1-5,1.18,1.18,0,0,0-.46-1.29c-.26-.26-.36-.36-.36-.48s.17-.24.43-.24c.53,0,1.64.56,1.64,1.08,0,.17,0,.33,0,.5A2.88,2.88,0,0,0,254,65a12.68,12.68,0,0,0,1.79-.21c.36-.07.56-.29.79-.29.41,0,1.2.65,1.2.91S257.43,65.84,257.31,66.25Z"/><path class="cls-2" d="M266.64,68.78a.5.5,0,0,1-.5.57c-.28,0-.47-.17-.64-.54s-.43-.93-.6-1.26.06-.6.42-.4C265.86,67.44,266.64,68.09,266.64,68.78Zm3.91-2.71c.5,0,1.2.58,1.2,1,0,.25-.19.42-.42.9a9.4,9.4,0,0,1-5.76,5,.29.29,0,1,1-.17-.56,9.36,9.36,0,0,0,5.08-5c.1-.26.07-.36-.11-.52s-.38-.25-.38-.42S270.28,66.07,270.55,66.07Zm-1.78,1.84a.52.52,0,0,1-.5.58c-.28,0-.47-.17-.62-.54s-.42-.89-.6-1.22.07-.59.42-.41C268,66.61,268.77,67.23,268.77,67.91Z"/><path class="cls-2" d="M280.33,65.39c.67,0,3.26-.33,4.43-.5.64-.08.72-.26,1-.26.61,0,1.48.74,1.48,1.13s-.43.42-.72,1a10.5,10.5,0,0,1-6.7,5.88c-.46.13-.67-.36-.21-.57,3.19-1.47,5.35-3.88,6-6.16.12-.38.06-.39-.31-.36a32.52,32.52,0,0,0-3.69.66,6.64,6.64,0,0,1-1.44.35,1.83,1.83,0,0,1-1.37-1.32c-.08-.34.12-.47.43-.3A2.08,2.08,0,0,0,280.33,65.39Z"/><path class="cls-3" d="M122.55,63.05c.21-.25.47-.49.61-.49s1,.74,1,1.06c0,.16-.23.29-.62.36a9.57,9.57,0,0,1-6.08,5.87c-.39.15-.57-.28-.19-.49,3-1.47,4.59-3.38,5.29-5.76h-2a11,11,0,0,1-3,3.3c-.35.23-.61-.07-.31-.38a11.23,11.23,0,0,0,3-4.72c0-.17.12-.19.28-.17.47.09,1.21.38,1.21.63s-.18.28-.59.28l-.28.51Zm-1.46,8.89a6.92,6.92,0,0,1-2.6,1.7c-.35.15-.54-.12-.28-.39a7.33,7.33,0,0,0,2.23-2.35c.07-.13.17-.19.29-.13.43.23,1.13.81,1.07,1.06S121.5,72.06,121.09,71.94Zm-1.84-6.22c.61.11,1.23.35,1.3.86a.5.5,0,0,1-.47.62c-.3,0-.44-.23-.63-.51s-.29-.36-.45-.54S118.89,65.66,119.25,65.72Zm5.2,4.24c-.07.11-.25.16-.42.22v3.06a.87.87,0,0,1-1,1c-.47,0-.31-.46-1.16-.67-.32-.09-.26-.48,0-.47s.68.07.84.06.31-.11.33-.39c0-.58,0-2,0-2.78h-3.7c-.18,0-.31-.06-.31-.28s.13-.28.31-.28h6.92c.28-.38.63-.83.82-.83s1.19.78,1.19,1.1-.21.29-.72.29Zm-4.34-5.08c-.22-.2-.17-.47.19-.45.61,0,1.22.18,1.36.68a.52.52,0,0,1-.4.65c-.29.08-.46-.18-.66-.41S120.28,65,120.11,64.88Zm1.76,3.1c-.18,0-.31-.06-.31-.28s.13-.28.31-.28h2.35c.27-.38.61-.81.79-.81s1.18.76,1.19,1.08-.25.29-.72.29Zm6.2-4.86c.21-.22.42-.42.54-.42a2.1,2.1,0,0,1,1.06,1.18c0,.15-.32.27-.57.29a10.55,10.55,0,0,1-2,2.22A7.15,7.15,0,0,0,130,68.12c.35.13.32.31,0,.43a1,1,0,0,0-.52.4c-.15.19-.31.29-.68.08-2.47-1.3-4-3.73-4.45-7a.26.26,0,0,1,.52-.08,10.58,10.58,0,0,0,1.84,4,8.62,8.62,0,0,0,1.36-2.24h-2.33c-.18,0-.31-.05-.31-.28s.13-.27.31-.27Z"/><path class="cls-3" d="M128.63,71.5a2.44,2.44,0,0,1,.41,2.42.28.28,0,0,1-.22.2,2.55,2.55,0,0,1-3.17-2.44c0-.22.09-.28.31-.22l.5.14c.27.07.34,0,.27-.26l-.09-.51c0-.22,0-.3.26-.28A2.6,2.6,0,0,1,128.63,71.5Z"/><g class="cls-4"><path class="cls-5" d="M179.59,6.29A5.57,5.57,0,0,1,176.5,11a.62.62,0,0,1-.68,0,5.81,5.81,0,0,1-1.62-9c.35-.37.59-.35.87.09s.42.68.65,1,.55.46.86,0,.43-.68.64-1,.53-.46.88-.07A6,6,0,0,1,179.59,6.29Z"/><path class="cls-5" d="M177.7,21.72a5.62,5.62,0,0,1-.23-5.65.68.68,0,0,1,.54-.41,5.81,5.81,0,0,1,6.57,6.42c-.06.51-.27.63-.76.44s-.74-.32-1.11-.46c-.52-.2-.72,0-.7.51,0,.4.05.8.07,1.2s-.17.68-.68.57A6,6,0,0,1,177.7,21.72Z"/><path class="cls-5" d="M170.1,8.11a5.63,5.63,0,0,1,3.62,4.35.64.64,0,0,1-.18.65A5.81,5.81,0,0,1,164.42,12c-.26-.45-.16-.67.34-.81s.78-.2,1.16-.32c.53-.15.6-.4.24-.83s-.52-.61-.78-.91-.28-.64.19-.86A6,6,0,0,1,170.1,8.11Z"/><path class="cls-5" d="M183,14.87a5.77,5.77,0,0,1-4.15-1.66.86.86,0,0,1-.23-.64,5.77,5.77,0,0,1,8.13-4.31c.42.19.46.43.17.8s-.56.66-.83,1-.23.63.26.77l1.21.31c.5.13.6.37.34.81A5.72,5.72,0,0,1,183,14.87Z"/><path class="cls-5" d="M173.48,15.62c1.21,0,1.29.06,1.67,1.2a5.77,5.77,0,0,1-4.3,7.49c-.51.11-.68,0-.65-.57s.06-.84.07-1.25-.2-.65-.66-.48l-1.16.47c-.5.19-.69.06-.75-.45A5.73,5.73,0,0,1,173.48,15.62Z"/><path class="cls-5" d="M262,3.19a3.39,3.39,0,0,1-.9,3.31.38.38,0,0,1-.39.14,3.53,3.53,0,0,1-2.62-4.92c.13-.28.28-.31.52-.11l.56.47c.26.21.41.16.5-.17s.12-.47.18-.71.22-.36.49-.2A3.63,3.63,0,0,1,262,3.19Z"/><path class="cls-5" d="M263.83,12.46a3.4,3.4,0,0,1-1.19-3.22.38.38,0,0,1,.24-.34,3.53,3.53,0,0,1,5,2.48c.05.3-.05.41-.36.39l-.73,0c-.34,0-.43.1-.31.42s.18.46.27.68,0,.42-.29.45A3.65,3.65,0,0,1,263.83,12.46Z"/><path class="cls-5" d="M256.89,6a3.4,3.4,0,0,1,2.91,1.83.38.38,0,0,1,0,.41,3.51,3.51,0,0,1-5.46,1.07c-.24-.21-.22-.35,0-.53l.61-.4c.28-.19.27-.34,0-.52l-.63-.38c-.26-.17-.28-.32-.05-.53A3.66,3.66,0,0,1,256.89,6Z"/><path class="cls-5" d="M265.59,7.52a3.52,3.52,0,0,1-2.71-.19.5.5,0,0,1-.25-.33,3.5,3.5,0,0,1,3.89-4c.27,0,.35.16.24.43s-.2.49-.29.73,0,.41.3.4l.75,0c.32,0,.42.1.35.4A3.49,3.49,0,0,1,265.59,7.52Z"/><path class="cls-5" d="M260.25,9.72c.7-.22.75-.2,1.19.38a3.51,3.51,0,0,1-1.08,5.13c-.28.16-.41.1-.49-.21s-.12-.49-.19-.73-.24-.34-.47-.15-.39.32-.59.48-.38.17-.51-.12A3.48,3.48,0,0,1,260.25,9.72Z"/><path class="cls-5" d="M207.52,12.72a4.93,4.93,0,0,1-3.59,3.44.61.61,0,0,1-.59-.12A5.11,5.11,0,0,1,203.76,8c.37-.25.58-.18.73.25s.22.67.35,1,.38.51.74.17l.75-.75c.33-.31.55-.28.77.12A5.28,5.28,0,0,1,207.52,12.72Z"/><path class="cls-5" d="M202.83,25.56a4.93,4.93,0,0,1,.93-4.89.57.57,0,0,1,.54-.24,5.11,5.11,0,0,1,4.35,6.8c-.16.43-.36.49-.74.23l-.86-.62c-.41-.27-.61-.18-.7.3s-.12.7-.18,1.05-.28.54-.69.34A5.24,5.24,0,0,1,202.83,25.56Z"/><path class="cls-5" d="M199,12.39a4.91,4.91,0,0,1,2.23,4.44.56.56,0,0,1-.28.53,5.11,5.11,0,0,1-7.59-2.76c-.13-.43,0-.6.45-.62l1.06,0c.49,0,.6-.23.37-.67s-.33-.62-.49-.94-.11-.6.34-.69A5.29,5.29,0,0,1,199,12.39Z"/><path class="cls-5" d="M208.7,20.74a5.12,5.12,0,0,1-3.22-2.25.72.72,0,0,1-.06-.59,5.06,5.06,0,0,1,7.81-2.07c.32.24.31.46,0,.72s-.62.45-.91.69-.32.49.07.71.65.33,1,.5.44.44.13.76A5,5,0,0,1,208.7,20.74Z"/><path class="cls-5" d="M200.43,19.49c1,.25,1.09.31,1.19,1.36a5.07,5.07,0,0,1-5.17,5.56c-.46,0-.58-.17-.45-.63s.22-.69.32-1.05,0-.59-.48-.54l-1.08.17c-.47.06-.61-.08-.55-.54A5,5,0,0,1,200.43,19.49Z"/><path class="cls-5" d="M306,6.3a5.83,5.83,0,0,1-2.56,5.3.66.66,0,0,1-.7.11,6.05,6.05,0,0,1-2.88-9.12c.32-.43.57-.44.92,0s.52.66.8,1,.63.4.89-.13c.19-.37.35-.76.53-1.13s.49-.54.89-.19A6.2,6.2,0,0,1,306,6.3Z"/><path class="cls-5" d="M306.14,22.49a5.84,5.84,0,0,1-1-5.8.68.68,0,0,1,.51-.5,6.06,6.06,0,0,1,7.64,5.75c0,.54-.21.69-.73.56l-1.21-.33c-.56-.13-.75,0-.66.63.07.41.16.82.23,1.23s-.08.72-.62.67A6.29,6.29,0,0,1,306.14,22.49Z"/><path class="cls-5" d="M296.48,9.45a5.82,5.82,0,0,1,4.32,4,.68.68,0,0,1-.1.7,6,6,0,0,1-9.56.08c-.33-.42-.26-.67.24-.88s.78-.31,1.16-.48.57-.49.14-.89-.63-.56-.94-.84-.37-.62.09-.91A6.21,6.21,0,0,1,296.48,9.45Z"/><path class="cls-5" d="M310.67,14.72a6.08,6.08,0,0,1-4.51-1.17.87.87,0,0,1-.31-.63,6,6,0,0,1,7.82-5.53c.45.14.53.38.28.81s-.5.75-.73,1.14-.14.68.38.76.86.1,1.29.15.67.3.45.79A6,6,0,0,1,310.67,14.72Z"/><path class="cls-5" d="M301,16.75c1.26-.15,1.34-.11,1.89,1a6,6,0,0,1-3.45,8.31c-.51.17-.71,0-.75-.51s-.05-.87-.09-1.3-.29-.64-.75-.4-.75.42-1.13.63-.71.16-.83-.37A6,6,0,0,1,301,16.75Z"/><path class="cls-5" d="M190.09,29.08a6.57,6.57,0,0,1-2,6.33.76.76,0,0,1-.77.24A6.82,6.82,0,0,1,182.64,26c.27-.53.55-.58,1-.18s.69.64,1,.95.78.34,1-.29c.15-.45.26-.91.4-1.36s.45-.68,1-.35A7.06,7.06,0,0,1,190.09,29.08Z"/><path class="cls-5" d="M192.9,47.1a6.57,6.57,0,0,1-2.07-6.3.75.75,0,0,1,.48-.64,6.8,6.8,0,0,1,9.45,5.14c.09.59-.11.8-.72.73l-1.4-.16c-.64,0-.83.18-.62.81.14.44.31.88.46,1.33s0,.82-.58.85A7,7,0,0,1,192.9,47.1Z"/><path class="cls-5" d="M180,34.18a6.53,6.53,0,0,1,5.47,3.74.77.77,0,0,1,0,.8,6.81,6.81,0,0,1-10.63,1.68c-.43-.42-.39-.71.13-1s.81-.47,1.21-.72.55-.65,0-1c-.38-.27-.78-.51-1.17-.78s-.52-.63-.06-1A7,7,0,0,1,180,34.18Z"/><path class="cls-5" d="M196.64,37.69a6.83,6.83,0,0,1-5.21-.55,1,1,0,0,1-.46-.65A6.75,6.75,0,0,1,198.75,29c.53.08.66.34.44.85s-.42.92-.61,1.39-.05.79.54.79l1.46-.05c.61,0,.8.23.64.81A6.72,6.72,0,0,1,196.64,37.69Z"/><path class="cls-5" d="M186.19,41.57c1.36-.39,1.47-.35,2.26.81A6.77,6.77,0,0,1,186,52.21c-.54.28-.79.17-.93-.45-.11-.47-.19-.95-.31-1.43s-.43-.66-.9-.32l-1.16.89c-.5.37-.76.3-1-.27A6.69,6.69,0,0,1,186.19,41.57Z"/><path class="cls-5" d="M330.32,23.89a8.27,8.27,0,0,1-2.46,8,1,1,0,0,1-1,.3A8.55,8.55,0,0,1,321,20c.34-.67.69-.73,1.27-.23s.87.8,1.32,1.19c.62.52,1,.42,1.22-.37.18-.57.32-1.14.5-1.7.21-.73.56-.86,1.21-.45A8.82,8.82,0,0,1,330.32,23.89Z"/><path class="cls-5" d="M333.89,46.48a8.25,8.25,0,0,1-2.61-7.9.94.94,0,0,1,.6-.8,8.55,8.55,0,0,1,11.89,6.42c.11.74-.14,1-.91.92-.59-.06-1.17-.14-1.76-.19-.81-.07-1,.22-.78,1,.18.56.4,1.11.59,1.67s0,1-.73,1.07A8.83,8.83,0,0,1,333.89,46.48Z"/><path class="cls-5" d="M317.63,30.31A8.27,8.27,0,0,1,324.51,35a1,1,0,0,1,0,1,8.55,8.55,0,0,1-13.34,2.14c-.54-.52-.5-.88.16-1.28.5-.31,1-.6,1.51-.92.69-.43.69-.81,0-1.27-.49-.34-1-.65-1.48-1s-.65-.79-.07-1.29A8.8,8.8,0,0,1,317.63,30.31Z"/><path class="cls-5" d="M338.56,34.66A8.58,8.58,0,0,1,332,34a1.21,1.21,0,0,1-.57-.81,8.48,8.48,0,0,1,9.74-9.39c.67.1.83.43.56,1.07s-.52,1.16-.76,1.75-.07,1,.68,1,1.22,0,1.84-.06,1,.28.8,1A8.43,8.43,0,0,1,338.56,34.66Z"/><path class="cls-5" d="M325.45,39.56c1.72-.48,1.85-.44,2.85,1a8.49,8.49,0,0,1-3.05,12.33c-.67.36-1,.22-1.16-.55-.13-.6-.24-1.2-.39-1.79s-.55-.84-1.14-.4-1,.75-1.45,1.12-.95.37-1.23-.34A8.42,8.42,0,0,1,325.45,39.56Z"/><path class="cls-5" d="M340.24,6.48A4.73,4.73,0,0,1,336,8.61a.54.54,0,0,1-.5-.27,4.88,4.88,0,0,1,2.64-7.25c.41-.13.58,0,.6.43l0,1c0,.47.22.57.64.36l.9-.47c.38-.19.57-.1.66.32A5,5,0,0,1,340.24,6.48Z"/><path class="cls-5" d="M332.35,16.89a4.68,4.68,0,0,1,2.21-4.2.54.54,0,0,1,.57-.07,4.88,4.88,0,0,1,2.06,7.43c-.26.34-.46.34-.73,0s-.41-.54-.62-.8-.5-.34-.73.07l-.45.91c-.2.38-.41.42-.73.12A5,5,0,0,1,332.35,16.89Z"/><path class="cls-5" d="M332.57,3.79a4.74,4.74,0,0,1,.8,4.69.54.54,0,0,1-.41.4,4.88,4.88,0,0,1-6.16-4.65c0-.43.16-.55.59-.44l1,.26c.45.11.6,0,.52-.5s-.12-.67-.18-1,.07-.58.5-.54A5,5,0,0,1,332.57,3.79Z"/><path class="cls-5" d="M339.06,14.14a4.91,4.91,0,0,1-2.31-3,.73.73,0,0,1,.11-.56,4.84,4.84,0,0,1,7.72.3c.22.31.15.51-.22.65s-.68.24-1,.38-.43.36-.13.67.5.48.75.73.28.52-.1.73A4.84,4.84,0,0,1,339.06,14.14Z"/><path class="cls-5" d="M331.86,10.68c.88.51.91.58.71,1.57a4.85,4.85,0,0,1-6.29,3.63c-.42-.14-.48-.32-.23-.7l.58-.87c.22-.35.13-.56-.28-.63l-1-.15c-.44-.07-.53-.24-.35-.64A4.81,4.81,0,0,1,331.86,10.68Z"/><path class="cls-5" d="M291.63,37.35a9,9,0,0,1-8.61-2.9,1,1,0,0,1-.3-1.05,9.33,9.33,0,0,1,13.39-6.16c.73.39.79.78.22,1.39s-.89.93-1.33,1.41c-.59.66-.48,1.05.37,1.35l1.84.58c.79.26.92.64.46,1.34A9.63,9.63,0,0,1,291.63,37.35Z"/><path class="cls-5" d="M266.88,40.64A9,9,0,0,1,275.57,38a1,1,0,0,1,.86.68,9.33,9.33,0,0,1-7.33,12.79c-.81.1-1.09-.17-1-1,.08-.64.19-1.27.26-1.91.1-.88-.22-1.14-1.08-.88-.62.18-1.23.4-1.84.59-.79.25-1.12,0-1.15-.82A9.61,9.61,0,0,1,266.88,40.64Z"/><path class="cls-5" d="M285,23.33a9,9,0,0,1-5.29,7.38,1,1,0,0,1-1.09,0,9.33,9.33,0,0,1-2-14.61c.58-.57,1-.52,1.39.21.33.55.63,1.12,1,1.67.46.77.87.78,1.39.05.38-.53.73-1.07,1.1-1.59.48-.68.88-.69,1.41-.05A9.55,9.55,0,0,1,285,23.33Z"/><path class="cls-5" d="M279.65,46.05a9.36,9.36,0,0,1,.91-7.12,1.39,1.39,0,0,1,.9-.6,9.26,9.26,0,0,1,10,10.89c-.13.72-.49.89-1.18.58s-1.25-.61-1.89-.88-1.07-.1-1.09.72c0,.66,0,1.33,0,2,0,.83-.33,1.08-1.13.85A9.2,9.2,0,0,1,279.65,46.05Z"/><path class="cls-5" d="M274.66,31.62c.48,1.88.43,2-1.19,3.08A9.26,9.26,0,0,1,260.1,31c-.37-.75-.21-1.08.63-1.25.65-.14,1.32-.24,2-.39s.92-.57.47-1.22-.8-1.08-1.19-1.62-.38-1,.4-1.34A9.2,9.2,0,0,1,274.66,31.62Z"/><path class="cls-5" d="M244.37,20.93a9.87,9.87,0,0,1-8.72,4.83,1.1,1.1,0,0,1-1.07-.53,10.24,10.24,0,0,1,4.91-15.42c.85-.3,1.21-.06,1.29.86.06.7.09,1.41.16,2.11.1,1,.49,1.18,1.36.7.62-.34,1.22-.72,1.84-1.06.79-.45,1.2-.27,1.42.61A10.54,10.54,0,0,1,244.37,20.93Z"/><path class="cls-5" d="M228.73,43.44a9.88,9.88,0,0,1,4.29-9,1.13,1.13,0,0,1,1.18-.2,10.25,10.25,0,0,1,5,15.41c-.53.74-1,.75-1.55.05-.46-.54-.9-1.09-1.36-1.63-.64-.73-1.09-.66-1.52.23-.3.64-.58,1.29-.88,1.93-.38.82-.81.92-1.51.32A10.57,10.57,0,0,1,228.73,43.44Z"/><path class="cls-5" d="M228.06,16a9.87,9.87,0,0,1,2.08,9.76,1.14,1.14,0,0,1-.82.87A10.25,10.25,0,0,1,216,17.38c0-.9.3-1.17,1.2-1,.69.15,1.38.32,2.07.46,1,.2,1.27-.12,1.07-1.1-.15-.69-.33-1.37-.48-2.06-.19-.89.09-1.23,1-1.18A10.54,10.54,0,0,1,228.06,16Z"/><path class="cls-5" d="M242.57,37.08a10.26,10.26,0,0,1-5.1-6,1.47,1.47,0,0,1,.18-1.18,10.16,10.16,0,0,1,16.21,0c.5.64.37,1.06-.4,1.39s-1.42.56-2.11.88-.87.8-.23,1.41,1.1,1,1.64,1.47.63,1.07-.14,1.54A10.11,10.11,0,0,1,242.57,37.08Z"/><path class="cls-5" d="M227.17,30.45c1.88,1,2,1.15,1.62,3.24a10.18,10.18,0,0,1-12.87,8.15c-.88-.25-1-.63-.54-1.44.37-.63.78-1.24,1.14-1.88s.22-1.17-.65-1.29c-.72-.09-1.45-.15-2.18-.23-.93-.11-1.14-.46-.79-1.31A10.09,10.09,0,0,1,227.17,30.45Z"/><path class="cls-5" d="M160.65,26.42a4.77,4.77,0,0,1-1.27,4.65.54.54,0,0,1-.55.19,5,5,0,0,1-3.67-6.9c.18-.39.39-.44.73-.16s.52.45.79.66.57.23.7-.24.16-.66.25-1,.31-.5.69-.28A5.07,5.07,0,0,1,160.65,26.42Z"/><path class="cls-5" d="M163.16,39.43a4.77,4.77,0,0,1-1.67-4.52.56.56,0,0,1,.33-.48,5,5,0,0,1,7,3.48c.07.43-.06.59-.51.56l-1-.08c-.47,0-.6.15-.43.6s.25.63.37.95,0,.6-.4.64A5.1,5.1,0,0,1,163.16,39.43Z"/><path class="cls-5" d="M153.43,30.39A4.75,4.75,0,0,1,157.5,33a.55.55,0,0,1,0,.58,5,5,0,0,1-7.68,1.5c-.32-.3-.3-.5.07-.75l.86-.56c.39-.26.38-.48,0-.74l-.88-.53c-.37-.23-.39-.45-.07-.75A5.09,5.09,0,0,1,153.43,30.39Z"/><path class="cls-5" d="M165.63,32.5a5,5,0,0,1-3.8-.27.72.72,0,0,1-.35-.45,4.92,4.92,0,0,1,5.46-5.62c.39,0,.49.23.35.6s-.29.68-.41,1,0,.57.41.55.71-.05,1.06-.06.59.14.49.57A4.91,4.91,0,0,1,165.63,32.5Z"/><path class="cls-5" d="M158.14,35.59c1-.32,1.06-.29,1.67.53a4.92,4.92,0,0,1-1.53,7.2c-.38.22-.56.14-.68-.3s-.17-.69-.26-1-.34-.47-.67-.21-.54.45-.82.68-.54.23-.72-.17A4.88,4.88,0,0,1,158.14,35.59Z"/><path class="cls-5" d="M88.49,10.11a3.67,3.67,0,0,1-2.38,2.83.41.41,0,0,1-.45,0,3.8,3.8,0,0,1-.34-6c.25-.21.41-.18.56.13s.22.48.34.71.32.34.56.06l.5-.61c.21-.26.37-.25.57,0A3.94,3.94,0,0,1,88.49,10.11Z"/><path class="cls-5" d="M86.05,20a3.67,3.67,0,0,1,.29-3.69.41.41,0,0,1,.39-.22,3.8,3.8,0,0,1,3.77,4.68c-.09.32-.23.39-.53.22l-.69-.38c-.32-.17-.47-.09-.5.28s0,.52,0,.78-.17.43-.49.32A4,4,0,0,1,86.05,20Z"/><path class="cls-5" d="M82.17,10.56a3.64,3.64,0,0,1,2,3.1.42.42,0,0,1-.17.41,3.8,3.8,0,0,1-5.84-1.42c-.13-.31-.05-.45.29-.5l.78-.12c.35-.06.42-.21.22-.52s-.3-.43-.44-.65-.13-.44.19-.54A3.87,3.87,0,0,1,82.17,10.56Z"/><path class="cls-5" d="M90,16a3.8,3.8,0,0,1-2.57-1.4.58.58,0,0,1-.09-.44A3.76,3.76,0,0,1,93,12c.26.15.27.31.05.53l-.62.59c-.23.23-.19.39.11.52l.77.29c.31.12.36.29.15.55A3.75,3.75,0,0,1,90,16Z"/><path class="cls-5" d="M83.79,15.7c.78.1.83.14,1,.91a3.78,3.78,0,0,1-3.38,4.53c-.34,0-.44-.08-.38-.43s.11-.53.15-.8-.08-.44-.4-.36l-.79.21c-.33.08-.45,0-.44-.35A3.74,3.74,0,0,1,83.79,15.7Z"/><path class="cls-5" d="M124.18,8.82c1.17,4,.3,8.26-3.08,12a1.38,1.38,0,0,1-1.4.52A12.74,12.74,0,0,1,110,3.73c.46-1,1-1.14,1.88-.43.68.55,1.35,1.12,2,1.66,1,.74,1.48.56,1.79-.64.22-.85.4-1.71.61-2.57.27-1.09.78-1.31,1.77-.75C120.88,2.6,122.84,4.93,124.18,8.82Z"/><path class="cls-5" d="M131.17,42.19c-3.27-2.55-5-6.55-4.48-11.56a1.42,1.42,0,0,1,.84-1.24,12.74,12.74,0,0,1,18.17,8.67c.22,1.11-.13,1.51-1.27,1.45-.88,0-1.76-.13-2.64-.16-1.21-.05-1.53.41-1.09,1.56.32.82.68,1.63,1,2.45.41,1,.13,1.52-1,1.64C137.46,45.34,134.52,44.58,131.17,42.19Z"/><path class="cls-5" d="M105.76,19.32c4.15,0,8,2.13,10.59,6.46a1.4,1.4,0,0,1,.08,1.49,12.74,12.74,0,0,1-19.7,4.17c-.84-.74-.81-1.27.14-1.92.72-.5,1.47-1,2.19-1.48,1-.7,1-1.25-.09-1.9-.75-.46-1.52-.88-2.28-1.33-1-.58-1-1.13-.2-1.92C98.85,20.65,101.65,19.46,105.76,19.32Z"/><path class="cls-5" d="M137.25,24.25a12.78,12.78,0,0,1-9.79-.52,1.81,1.81,0,0,1-.91-1.17A12.64,12.64,0,0,1,140.36,7.87c1,.09,1.27.57.92,1.55s-.7,1.76-1,2.66,0,1.47,1.09,1.41c.92-.05,1.82-.16,2.73-.22,1.13-.08,1.51.34,1.27,1.44A12.54,12.54,0,0,1,137.25,24.25Z"/><path class="cls-5" d="M118.09,32.52c2.52-.85,2.71-.79,4.32,1.3a12.66,12.66,0,0,1-3.63,18.59c-1,.58-1.45.39-1.77-.74-.25-.87-.46-1.76-.72-2.64-.32-1-.87-1.2-1.72-.51-.7.58-1.38,1.19-2.08,1.78-.89.74-1.38.63-1.86-.41A12.55,12.55,0,0,1,118.09,32.52Z"/><path class="cls-5" d="M82.09,30a5.91,5.91,0,0,1-3.27,5,.69.69,0,0,1-.72,0,6.15,6.15,0,0,1-1.71-9.55c.37-.4.63-.37.93.09s.44.73.68,1.08.58.48.91,0l.68-1.08c.29-.46.56-.48.92-.07A6.28,6.28,0,0,1,82.09,30Z"/><path class="cls-5" d="M80.1,46.28a5.9,5.9,0,0,1-.25-6,.69.69,0,0,1,.57-.44,6.15,6.15,0,0,1,7,6.78c-.08.54-.3.67-.81.46s-.78-.33-1.18-.48-.76-.05-.74.54c0,.43.06.85.08,1.27s-.18.72-.72.6A6.33,6.33,0,0,1,80.1,46.28Z"/><path class="cls-5" d="M72.06,31.9a5.92,5.92,0,0,1,3.83,4.59.67.67,0,0,1-.2.69A6.14,6.14,0,0,1,66.06,36c-.27-.47-.17-.71.36-.85l1.23-.34c.56-.16.63-.42.26-.88l-.84-1c-.35-.42-.29-.68.21-.91A6.32,6.32,0,0,1,72.06,31.9Z"/><path class="cls-5" d="M85.66,39a6.17,6.17,0,0,1-4.39-1.76.88.88,0,0,1-.23-.67,6.09,6.09,0,0,1,8.58-4.56c.44.2.49.46.18.85s-.6.7-.88,1.05-.23.67.28.82.85.21,1.28.32.63.39.35.86A6,6,0,0,1,85.66,39Z"/><path class="cls-5" d="M75.63,39.83c1.28,0,1.36.06,1.77,1.27A6.09,6.09,0,0,1,72.86,49c-.54.11-.72,0-.69-.61s.06-.88.08-1.32-.22-.68-.71-.5l-1.22.49c-.52.2-.73.07-.79-.48A6.05,6.05,0,0,1,75.63,39.83Z"/><path class="cls-5" d="M47.46,8a9.23,9.23,0,0,1-2.29,9,1.07,1.07,0,0,1-1.05.39A9.58,9.58,0,0,1,36.77,4.17c.35-.77.74-.86,1.41-.32s1,.84,1.55,1.24c.72.56,1.11.42,1.34-.48.17-.64.3-1.29.46-1.93.2-.82.58-1,1.33-.57A9.85,9.85,0,0,1,47.46,8Z"/><path class="cls-5" d="M52.76,33a9.24,9.24,0,0,1-3.38-8.68,1.06,1.06,0,0,1,.63-.93,9.57,9.57,0,0,1,13.66,6.49c.16.83-.1,1.13-1,1.09-.66,0-1.32-.1-2-.12-.91,0-1.15.31-.82,1.17.24.62.51,1.22.76,1.84.31.78.1,1.14-.76,1.23A9.85,9.85,0,0,1,52.76,33Z"/><path class="cls-5" d="M33.64,15.88a9.27,9.27,0,0,1,8,4.84,1.05,1.05,0,0,1,.06,1.12A9.57,9.57,0,0,1,26.88,25c-.63-.56-.61-1,.1-1.45.55-.37,1.11-.73,1.65-1.11.74-.53.72-.94-.07-1.43-.56-.34-1.15-.66-1.71-1-.73-.43-.78-.84-.16-1.43A9.84,9.84,0,0,1,33.64,15.88Z"/><path class="cls-5" d="M57.3,19.55A9.61,9.61,0,0,1,50,19.17a1.38,1.38,0,0,1-.69-.88,9.49,9.49,0,0,1,10.36-11c.75.07,1,.43.69,1.16s-.53,1.33-.76,2,0,1.1.82,1.06,1.37-.12,2.05-.17c.84-.06,1.13.25.95,1.08A9.46,9.46,0,0,1,57.3,19.55Z"/><path class="cls-5" d="M42.92,25.78c1.89-.64,2-.6,3.25,1a9.52,9.52,0,0,1-2.7,14c-.74.43-1.09.29-1.33-.55-.19-.66-.35-1.33-.55-2s-.66-.9-1.29-.38-1,.9-1.56,1.34-1,.47-1.4-.31A9.43,9.43,0,0,1,42.92,25.78Z"/><path class="cls-5" d="M14.49,4.27a5.54,5.54,0,0,1-2.51,5,.63.63,0,0,1-.67.1A5.78,5.78,0,0,1,8.67.66c.31-.41.55-.41.88,0s.49.62.75.93.6.39.85-.11.34-.72.52-1.08.47-.51.85-.17A6,6,0,0,1,14.49,4.27Z"/><path class="cls-5" d="M14.41,19.71a5.55,5.55,0,0,1-.88-5.55A.61.61,0,0,1,14,13.7a5.77,5.77,0,0,1,7.22,5.57c0,.51-.21.65-.71.52s-.76-.23-1.15-.33-.72,0-.63.59c.06.4.14.79.21,1.18s-.09.69-.6.63A5.89,5.89,0,0,1,14.41,19.71Z"/><path class="cls-5" d="M5.33,7.16A5.59,5.59,0,0,1,9.41,11a.63.63,0,0,1-.11.67,5.77,5.77,0,0,1-9.12,0c-.3-.41-.23-.64.25-.84l1.11-.44c.5-.22.54-.47.14-.85S1.09,9,.8,8.73s-.35-.6.09-.87A5.93,5.93,0,0,1,5.33,7.16Z"/><path class="cls-5" d="M18.81,12.35a5.8,5.8,0,0,1-4.29-1.17.82.82,0,0,1-.29-.6,5.73,5.73,0,0,1,7.52-5.19c.43.14.5.37.25.77s-.47.72-.7,1.08-.15.65.35.73.82.11,1.23.16.63.3.42.77A5.7,5.7,0,0,1,18.81,12.35Z"/><path class="cls-5" d="M9.54,14.18c1.19-.13,1.27-.09,1.78,1A5.74,5.74,0,0,1,8,23.06c-.49.16-.68,0-.71-.5s0-.83-.07-1.24-.28-.61-.71-.39l-1.1.59c-.46.25-.67.15-.78-.36A5.68,5.68,0,0,1,9.54,14.18Z"/><path class="cls-5" d="M21.92,32.18a6.36,6.36,0,0,1-5.19,3.76.74.74,0,0,1-.73-.26,6.59,6.59,0,0,1,1.94-10.22c.53-.25.77-.13.89.45s.17.89.27,1.34c.14.61.41.71.92.34l1.09-.82c.47-.35.75-.27,1,.28A6.84,6.84,0,0,1,21.92,32.18Z"/><path class="cls-5" d="M13.68,47.75a6.33,6.33,0,0,1,2-6.07.77.77,0,0,1,.75-.22,6.58,6.58,0,0,1,4.35,9.45c-.27.51-.55.56-1,.16l-1-.94c-.46-.42-.74-.34-.94.26-.15.43-.27.87-.42,1.3s-.45.65-.94.32A6.74,6.74,0,0,1,13.68,47.75Z"/><path class="cls-5" d="M11.13,30.27a6.36,6.36,0,0,1,2.08,6.06.74.74,0,0,1-.46.63,6.59,6.59,0,0,1-9.21-4.85c-.09-.58.1-.78.69-.72s.9.1,1.36.13c.62.05.8-.18.59-.78-.14-.43-.31-.85-.46-1.28s0-.79.55-.83A6.8,6.8,0,0,1,11.13,30.27Z"/><path class="cls-5" d="M22,42.63a6.57,6.57,0,0,1-3.72-3.44,1,1,0,0,1,0-.76,6.53,6.53,0,0,1,10.34-1.28c.37.37.32.64-.14.92s-.86.47-1.28.72-.5.58,0,.92.78.54,1.16.81.49.64,0,1A6.5,6.5,0,0,1,22,42.63Z"/><path class="cls-5" d="M11.67,39.59c1.28.49,1.34.58,1.29,1.94a6.54,6.54,0,0,1-7.58,6.19c-.59-.09-.71-.32-.46-.87s.4-.86.58-1.29,0-.77-.51-.77-.94,0-1.41,0S2.82,44.6,3,44A6.49,6.49,0,0,1,11.67,39.59Z"/></g><path class="cls-2" d="M87.6,27.28c-.25,1.12-.95,4.48-1.09,5.32,0,.21-.09.89-.09,1.17s.09,1.19.09,1.39a.49.49,0,0,1-.5.53c-1.42,0-1.89-4.23-1.89-5.58a45.93,45.93,0,0,1,1.11-8,6.16,6.16,0,0,0,.18-1.35,1.85,1.85,0,0,0-1-1.87,1.51,1.51,0,0,1,.48-.07A2.37,2.37,0,0,1,87,20.66c0,.25,0,.34-.36,1.19a19.52,19.52,0,0,0-1.53,7.37,14.3,14.3,0,0,0,.29,3s0,.05.1.05.22-.32.25-.39c.77-2.26.86-2.51,1.55-4.5a.52.52,0,0,0,.06-.16Zm8.52-7.47c0-1.21-.38-1.34-1.57-1.64a2.6,2.6,0,0,1,1.39-.41,2.19,2.19,0,0,1,1.41.66c.19.16.28.25.28.46s-.16.8-.18.93A19.23,19.23,0,0,0,97.24,23c.48-.09,2.51-.66,2.94-.66.27,0,1.09.3,1.09.66s-.41.48-.57.51c-1.34.29-3.37.52-3.46.55.05,2.46.11,5.16.34,7.37a19.83,19.83,0,0,1,2.92,1.4,1.83,1.83,0,0,1,.93,1.3.59.59,0,0,1-.57.61c-.2,0-.34-.09-.75-.36-.89-.6-2.16-1.42-2.69-1.69a3.37,3.37,0,0,1-3.53,2.58c-2,0-3.6-1-3.6-2.35a2.07,2.07,0,0,1,1.3-1.74,6.09,6.09,0,0,1,2.32-.36,16.16,16.16,0,0,1,2.49.2c0-.68-.16-5.75-.18-6.85a16.64,16.64,0,0,1-2.08.18,6.31,6.31,0,0,1-3.23-.84,1.4,1.4,0,0,1-.62-.78,7.55,7.55,0,0,0,3.35.64,17,17,0,0,0,2.55-.18C96.17,22.62,96.15,20.29,96.12,19.81ZM93.78,31.62c-1,0-2.67.34-2.67,1.23,0,.73,1.09,1.28,2.42,1.28a2.52,2.52,0,0,0,2.8-2A6.45,6.45,0,0,0,93.78,31.62Z"/><path class="cls-2" d="M112.58,19.53c0,1,0,4.61,0,5.74,0,1.42.15,3.68.15,5.09,0,.31,0,1.09-.91,1.09-.55,0-.57-.38-.57-.73,0-.1,0-.79,0-.94h-2.77c0,.76,0,1.26,0,1.84a2.41,2.41,0,0,1-.2,1.26,1.05,1.05,0,0,1-.78.41.46.46,0,0,1-.51-.53c0-.43.13-2.35.13-2.72,0-.74,0-2.52,0-5.75,0-1.76,0-5.31-.18-6.85l1.61.8h2.34l.48-.5c.25-.25.27-.3.38-.3s.15,0,.52.35l.71.56c.2.15.2.22.2.3C113.34,18.9,113,19.23,112.58,19.53Zm-1.25-.68h-2.77V29.18h2.77Zm10,2.24h2.94l.81-1c.17-.23.25-.31.38-.31s.15.06.45.28l1.28,1c.08.08.25.23.25.4s-.27.26-.4.26h-6.26a42.49,42.49,0,0,1-.45,6.09H126l1-1.18c.18-.23.25-.3.4-.3s.23.07.43.25L129,27.74c.15.15.25.23.25.38s-.28.28-.38.28h-7.67a11.74,11.74,0,0,0,8.58,7.38v.13a3.58,3.58,0,0,0-2.22,1.43,12.82,12.82,0,0,1-4-3.4,11.58,11.58,0,0,1-2.74-5.54h-.6a11.44,11.44,0,0,1-9.73,9.7v-.18a12.61,12.61,0,0,0,8.34-9.52H117a17.11,17.11,0,0,0-3.24.3l-.6-1.11c1.33.13,2.86.2,4.2.2H119a38.75,38.75,0,0,0,.46-6.09h-1.66a20.21,20.21,0,0,0-3.25.3l-.6-1.09c1.33.11,2.87.18,4.2.18H121m0,0c1-1.61,2.46-4.18,2.54-5.74l2.16,1.13c.17.1.35.18.35.35,0,.33-.33.43-1.59.68a24.84,24.84,0,0,1-3.09,3.58M117.74,20c-.58,0-.68-.41-1-1.41a6.81,6.81,0,0,0-1.43-2.75l.13-.08c2.06.94,3.11,2.45,3.11,3.31A.86.86,0,0,1,117.74,20Z"/><path class="cls-2" d="M143.86,25.34c-.3.6-2.57,5.27-2.66,5.49a2.69,2.69,0,0,0-.15.79c0,.15.15.83.15,1a.47.47,0,0,1-.53.48c-.39,0-2.67-.18-3.74-4.68A27.93,27.93,0,0,1,136.5,24a5.91,5.91,0,0,0-1-3.58,2.7,2.7,0,0,1,2.38,2.21,3.48,3.48,0,0,1-.13.92,10,10,0,0,0-.15,1.82c0,1.2.28,4.22,1.6,5.27.07,0,.28.24.47.24a.65.65,0,0,0,.52-.33c1.58-2.48,1.75-2.72,3.29-5l.19-.3ZM148.71,28l2-.3a.54.54,0,0,0,.55-.53A6.88,6.88,0,0,0,147.28,22a2,2,0,0,1,.66-.13,3.7,3.7,0,0,1,2.44,1.33,9,9,0,0,1,2.31,5.06c0,.64-.28,1.28-.6,1.28-.15,0-.22,0-.75-.49a4.68,4.68,0,0,0-2.63-1Z"/><path class="cls-2" d="M164.72,19.42c0-.8-.53-1-1.18-1.38a1.34,1.34,0,0,1,.67-.17,1.84,1.84,0,0,1,2.08,1.68,2,2,0,0,1-.35.69,14.71,14.71,0,0,0-1,2.12,13.15,13.15,0,0,0,2-.94,3.1,3.1,0,0,1,1.22-.51c.27,0,.73.18.73.58,0,.13,0,.26-.46.51a17,17,0,0,1-3.91,1.44,5.84,5.84,0,0,1-.22.6c-2.1,5.92-4.28,10.6-4.52,11.07a.61.61,0,0,1-.6.4c-.4,0-.58-.58-.58-.95s.05-.45.71-1.43c.93-1.35,1.29-2.26,4-9.06.09-.25.09-.27.13-.36a16.23,16.23,0,0,1-3,.4,2.65,2.65,0,0,1-2.16-1.18,8.56,8.56,0,0,0,2.27.29,12.43,12.43,0,0,0,3.26-.49A17.63,17.63,0,0,0,164.72,19.42Zm6.59,14.94a16.87,16.87,0,0,0,2.48-.18,4.83,4.83,0,0,1,.73-.09,1,1,0,0,1,1.07.87.48.48,0,0,1-.45.44,13.45,13.45,0,0,1-2.48.18,11.79,11.79,0,0,1-4.86-.78,2.78,2.78,0,0,1-1.59-2.38,3,3,0,0,1,.42-1.51C166.76,32.91,167,34.36,171.31,34.36ZM171,26.87c1.4-1.18,1.86-1.56,1.86-1.85,0-.44-1-.64-2-.64-.69,0-1.24.06-1.67.09a5.34,5.34,0,0,1,3.09-.89c2.24,0,3.34,1,3.34,1.78,0,.31-.19.42-.5.42l-.71-.05A9.79,9.79,0,0,0,171.17,27Z"/><path class="cls-2" d="M181.39,31.67a10.07,10.07,0,0,1,4.73,1.94,3.79,3.79,0,0,1,1.46,2.85,1.26,1.26,0,0,1-1.16,1.31c-.4,0-.68-.33-1.18-1.33-1.23-2.52-1.78-3.61-3.9-4.51Z"/><path class="cls-2" d="M200.89,19.79c-.48,1.16-1.33,3.38-2.09,5.27-2.28,5.77-2.64,6.05-2.64,6.62a7.93,7.93,0,0,0,.68,2.15,4.58,4.58,0,0,1,.38,1.53,1.17,1.17,0,0,1-1.08,1.29c-1,0-1.06-1.36-1.06-1.76s0-1.47,0-1.72c0-.7,0-2.11-1.18-2.62-.58-.25-.65-.27-.7-.33V30a2.31,2.31,0,0,0,2.16-.78c.83-.93,4.7-8.41,5.38-9.85l.23.1C201,19.59,200.92,19.72,200.89,19.79Zm-3.27,2.09c-.5,0-.63-.25-1.18-1.36a6.87,6.87,0,0,0-2.61-3.15l0-.2c2.54.61,4.65,2.35,4.65,3.68A1,1,0,0,1,197.62,21.88Zm15.87,16a16.69,16.69,0,0,1-4.65-5.69c-1.41-2.82-1.64-4.28-2.34-8.79-.56,5.36-1.44,11.26-9.88,14.91l-.1-.25a18.36,18.36,0,0,0,6.68-6.93,24.4,24.4,0,0,0,2.09-8.82h-1.91a22.24,22.24,0,0,1-4.15,5.57l-.22-.18c2.43-3.07,5.18-10.48,5.18-12a1.71,1.71,0,0,0-.06-.43l2.29,1.06c.13.08.23.15.23.33s-.38.45-1.23.73a32.73,32.73,0,0,1-1.74,4.36h7.95l.83-.68a.64.64,0,0,1,.4-.2c.17,0,.27.12.45.27l1.31,1.29a.44.44,0,0,1,.17.4c0,.5-.47.5-1.51.53a40.83,40.83,0,0,0-3.36,2.42.44.44,0,0,0-.15.07l-.21-.1a18.43,18.43,0,0,0,2-3.4H207c.2,3.08,1.4,8.12,4.22,10.91a9.81,9.81,0,0,0,5,2.93v.15A3.85,3.85,0,0,0,213.49,37.83Z"/><path class="cls-2" d="M225.31,27.28c-.25,1.12-1,4.48-1.1,5.32,0,.21-.09.89-.09,1.17s.09,1.19.09,1.39a.49.49,0,0,1-.5.53c-1.41,0-1.89-4.23-1.89-5.58a46.91,46.91,0,0,1,1.11-8,6.43,6.43,0,0,0,.19-1.35,1.86,1.86,0,0,0-1-1.87,1.47,1.47,0,0,1,.48-.07,2.36,2.36,0,0,1,2.09,1.85c0,.25,0,.34-.36,1.19a19.52,19.52,0,0,0-1.53,7.37,13.33,13.33,0,0,0,.3,3,.11.11,0,0,0,.09.05c.16,0,.23-.32.25-.39.77-2.26.87-2.51,1.55-4.5a.56.56,0,0,0,.07-.16Zm8.52-7.47c-.05-1.21-.39-1.35-1.57-1.64a2.54,2.54,0,0,1,1.39-.41,2.25,2.25,0,0,1,1.41.66c.18.16.27.25.27.46s-.16.8-.18.93A19.39,19.39,0,0,0,235,23c.48-.09,2.5-.66,2.94-.66.27,0,1.09.3,1.09.66s-.41.48-.57.51c-1.34.29-3.37.52-3.46.54,0,2.47.11,5.17.34,7.38a20.54,20.54,0,0,1,2.92,1.4,1.87,1.87,0,0,1,.93,1.3.6.6,0,0,1-.57.62c-.2,0-.34-.1-.75-.37-.89-.59-2.17-1.42-2.69-1.69a3.39,3.39,0,0,1-3.53,2.58c-2,0-3.6-1-3.6-2.35a2.06,2.06,0,0,1,1.29-1.74,6.14,6.14,0,0,1,2.33-.36,16,16,0,0,1,2.48.2c.05-.68-.16-5.75-.18-6.85a16.47,16.47,0,0,1-2.07.18,6.37,6.37,0,0,1-3.24-.84,1.34,1.34,0,0,1-.61-.78,7.5,7.5,0,0,0,3.34.64,17.1,17.1,0,0,0,2.56-.18C233.87,22.62,233.85,20.29,233.83,19.81Zm-2.35,11.81c-1,0-2.66.34-2.66,1.24,0,.73,1.09,1.27,2.41,1.27a2.52,2.52,0,0,0,2.8-2A6.6,6.6,0,0,0,231.48,31.62Z"/><path class="cls-2" d="M290.47,21.73c.38-.23.4-.25.69-.25s.79.19.79.51-.17.33-.33.43a21.36,21.36,0,0,1-3.69,1.44,106.61,106.61,0,0,1-4.21,10.71c-.22.43-.33.69-.66.69s-.58-.46-.58-.8,0-.29.64-1.42A52.16,52.16,0,0,0,287,24.13a11.46,11.46,0,0,1-2.7.36c-1.48,0-1.88-.63-2.11-1.07a5.12,5.12,0,0,0,1.82.28,14.05,14.05,0,0,0,3.3-.53,17.93,17.93,0,0,0,.8-3.12c0-.59-.42-.84-1.07-1.24a2.62,2.62,0,0,1,.88-.14,1.56,1.56,0,0,1,1.6,1.35c0,.13,0,.21-.25.69a19.53,19.53,0,0,0-.89,2.11A15,15,0,0,0,290.47,21.73ZM294,34.13a19.76,19.76,0,0,0,3-.25c.36,0,.4-.07.48-.07.36,0,1,.44,1,.76,0,.66-2.43.69-3.64.69a6.84,6.84,0,0,1-4.35-1.15,2.38,2.38,0,0,1-.81-1.84,2.68,2.68,0,0,1,.33-1.33C290,32.69,290.45,34.13,294,34.13Zm.12-7.16c.48-.37,1.69-1.38,1.69-1.75s-.77-.44-3.44-.5a5.47,5.47,0,0,1,2.92-.77c1.31,0,3.06.52,3.06,1.5,0,.52-.36.52-1,.52-.81,0-1.37.15-3.23,1.08Zm3.52-5.17c0,.12,0,.52-.4.52s-.29,0-1.08-.84a12.23,12.23,0,0,0-2.2-1.64C295.28,19.84,297.59,20.38,297.59,21.8Zm-1.33-3.61A5.29,5.29,0,0,1,299,19a1.19,1.19,0,0,1,.43.92c0,.23-.08.48-.39.48s-.42-.15-.65-.38a7.2,7.2,0,0,0-2.93-1.75A2.8,2.8,0,0,1,296.26,18.19Z"/></g></g></svg>