<svg xmlns="http://www.w3.org/2000/svg" viewBox="0 0 32.28 34.19"><defs><style>.cls-1{fill:#ec6d5f;}</style></defs><title>アセット 2</title><g id="レイヤー_2" data-name="レイヤー 2"><g id="レイヤー_1-2" data-name="レイヤー 1"><path class="cls-1" d="M30.42,24.85a8.36,8.36,0,0,1,1.31,8.34,1,1,0,0,1-.74.71,8.68,8.68,0,0,1-10.84-8.4c0-.76.31-1,1.06-.77.58.15,1.16.32,1.73.48.93.26,1.15.09.95-.88-.12-.59-.21-1.18-.31-1.77-.12-.76.14-1,.91-.95A9,9,0,0,1,30.42,24.85Z"/><path class="cls-1" d="M7.42,4.53h4.13l1.15-.78c.37-.27.41-.31.54-.31s.44.31.58.44l.95,1a1.22,1.22,0,0,1,.37.65c0,.27-.2.37-.37.44s-1.09.24-1.26.27C9.62,13.87,6.1,16.55.17,18.75L0,18.45C8.57,14.08,10.77,7.68,11.55,5.34H6.74m.68-.81-.68.81M29.19,21.12H16.46v2c0,.77.14,4.67.14,4.84,0,1.93-.89,3.55-3.63,3.83-.44-1.43-1.05-2.07-2.67-3l.06-.24a12.52,12.52,0,0,0,3.05.4c.92,0,1.12-.16,1.15-.67,0-.88,0-2,.07-7.15H5.45a25.12,25.12,0,0,0-4.37.41L.3,20c1.77.17,3.87.27,5.63.27H25.16l1.32-1.63c.11-.1.38-.4.55-.4a.88.88,0,0,1,.54.3l1.79,1.66a.84.84,0,0,1,.34.51C29.7,21.12,29.33,21.12,29.19,21.12ZM8.33,25a20.37,20.37,0,0,1-7.25,5.82l-.17-.2a35.58,35.58,0,0,0,4.88-5.52C6.91,23.53,7,23,7,22.27L9.18,23.8c.51.34.64.44.64.71C9.82,25.05,9.28,25.05,8.33,25ZM5.62,13.67c-.78,0-1-.58-1.25-1.39-.58-1.59-.78-2.17-1.46-2.67L3,9.44c1.09.23,3.53,1.35,3.53,3.08C6.54,13.06,6.3,13.67,5.62,13.67Zm3-3.39c-.74,0-.91-.47-1.25-1.49A4.83,4.83,0,0,0,6.13,6.46l.14-.14C8.3,7,9.38,8.49,9.38,9.4A.79.79,0,0,1,8.6,10.28Zm12.6,5.79H13.92a24.46,24.46,0,0,0-4.34.41L8.77,15c2.54.2,5,.23,5.62.23h3.29L18.73,14c.13-.17.37-.45.54-.45s.51.28.61.38l1.49,1.28c.24.21.34.31.34.55S21.44,16.07,21.2,16.07Zm7.72.07c-.54.41-.61.48-.81.85C22.18,13.91,17.88,10.11,16,2.49h.37a17.89,17.89,0,0,0,5.32,7.79C22,9.84,23,7.81,23.23,7.4c.34-.64.88-2,1.26-2.87H23.17a24.66,24.66,0,0,0-4.37.4L18,3.48c2.54.2,5,.23,5.62.23h.44L25.2,3a4,4,0,0,1,.54-.34,4.93,4.93,0,0,1,.54.34l1.63,1.15c.23.14.5.34.5.64a.58.58,0,0,1-.47.58c-.2.1-1.15.3-1.32.37-2.24,2.44-2.51,2.71-4.27,4.71l-.23.24a18.61,18.61,0,0,0,9.55,4.23v.27C30.07,15.43,29.77,15.47,28.92,16.14Z"/><path class="cls-1" d="M6.88,7.24A6,6,0,0,1,1.09,9.07a.72.72,0,0,1-.58-.45A6.24,6.24,0,0,1,5.32,0c.54-.07.73.12.66.67S5.87,1.54,5.82,2c-.08.69.06.82.73.58.4-.15.81-.28,1.22-.41s.75,0,.77.54A6.4,6.4,0,0,1,6.88,7.24Z"/></g></g></svg>